<svg xmlns="http://www.w3.org/2000/svg" viewBox="0 0 400 400">
  <defs>
    <linearGradient id="bg" x1="0%" y1="0%" x2="100%" y2="100%">
      <stop offset="0%" style="stop-color:#1a1a5e"/>
      <stop offset="100%" style="stop-color:#0a0a2e"/>
    </linearGradient>
  </defs>
  <rect width="400" height="400" fill="url(#bg)" rx="20"/>
  <!-- Lightning bolt -->
  <path d="M220 40 L180 180 L210 180 L170 340 L260 160 L225 160 L270 40Z" fill="rgba(255,215,0,0.2)" stroke="rgba(255,215,0,0.5)" stroke-width="2"/>
  <!-- Inner lightning glow -->
  <path d="M225 60 L195 170 L215 170 L185 310 L250 170 L228 170 L260 60Z" fill="rgba(255,215,0,0.1)"/>
  <!-- Bottle silhouette -->
  <path d="M180 320 L180 250 Q165 230 165 210 L165 150 Q165 130 175 120 L175 90 Q175 80 185 80 L215 80 Q225 80 225 90 L225 120 Q235 130 235 150 L235 210 Q235 230 220 250 L220 320 Q220 330 210 330 L190 330 Q180 330 180 320Z" fill="rgba(255,255,255,0.12)" stroke="rgba(255,255,255,0.25)" stroke-width="1.5"/>
  <!-- Cap -->
  <rect x="183" y="72" width="34" height="12" rx="3" fill="rgba(255,255,255,0.2)"/>
  <!-- Brand text -->
  <text x="200" y="370" text-anchor="middle" font-family="Arial Black, sans-serif" font-size="34" font-weight="900" fill="white">THUMS UP</text>
  <text x="200" y="393" text-anchor="middle" font-family="Arial, sans-serif" font-size="12" fill="rgba(255,215,0,0.7)">Taste The Thunder</text>
  <!-- Electric sparks -->
  <circle cx="140" cy="120" r="2" fill="rgba(255,215,0,0.5)"/>
  <circle cx="270" cy="100" r="1.5" fill="rgba(255,215,0,0.4)"/>
  <circle cx="130" cy="260" r="1.8" fill="rgba(255,215,0,0.3)"/>
  <circle cx="280" cy="240" r="2.2" fill="rgba(255,215,0,0.45)"/>
</svg>