<svg xmlns="http://www.w3.org/2000/svg" viewBox="0 0 400 400">
  <defs>
    <linearGradient id="bg" x1="0%" y1="0%" x2="100%" y2="100%">
      <stop offset="0%" style="stop-color:#87CEEB"/>
      <stop offset="50%" style="stop-color:#4da6e0"/>
      <stop offset="100%" style="stop-color:#2980b9"/>
    </linearGradient>
    <radialGradient id="glow" cx="50%" cy="40%" r="50%">
      <stop offset="0%" style="stop-color:rgba(255,255,255,0.2)"/>
      <stop offset="100%" style="stop-color:rgba(255,255,255,0)"/>
    </radialGradient>
  </defs>
  <rect width="400" height="400" fill="url(#bg)" rx="20"/>
  <rect width="400" height="400" fill="url(#glow)"/>
  <!-- Water bottle shape -->
  <path d="M180 320 L180 250 Q168 235 168 218 L168 155 Q168 138 178 128 L178 95 Q178 85 188 85 L212 85 Q222 85 222 95 L222 128 Q232 138 232 155 L232 218 Q232 235 220 250 L220 320 Q220 328 212 328 L188 328 Q180 328 180 320Z" fill="rgba(255,255,255,0.2)" stroke="rgba(255,255,255,0.45)" stroke-width="1.5"/>
  <!-- Cap -->
  <rect x="185" y="77" width="30" height="12" rx="3" fill="rgba(255,255,255,0.35)"/>
  <!-- Water level -->
  <path d="M170 200 Q185 195 200 200 Q215 205 230 200 L230 218 Q230 235 220 250 L220 320 Q220 328 212 328 L188 328 Q180 328 180 320 L180 250 Q168 235 170 218Z" fill="rgba(255,255,255,0.1)"/>
  <!-- Water drops -->
  <path d="M145 120 Q148 110 151 120 Q148 126 145 120Z" fill="rgba(255,255,255,0.3)"/>
  <path d="M255 150 Q258 140 261 150 Q258 156 255 150Z" fill="rgba(255,255,255,0.25)"/>
  <path d="M135 200 Q138 190 141 200 Q138 206 135 200Z" fill="rgba(255,255,255,0.2)"/>
  <path d="M265 230 Q268 220 271 230 Q268 236 265 230Z" fill="rgba(255,255,255,0.22)"/>
  <path d="M120 270 Q123 260 126 270 Q123 276 120 270Z" fill="rgba(255,255,255,0.18)"/>
  <!-- Bubbles in bottle -->
  <circle cx="195" cy="260" r="3" fill="rgba(255,255,255,0.15)"/>
  <circle cx="205" cy="280" r="2" fill="rgba(255,255,255,0.12)"/>
  <circle cx="200" cy="300" r="2.5" fill="rgba(255,255,255,0.1)"/>
  <!-- Mountain silhouette -->
  <path d="M0 70 L60 30 L100 55 L150 15 L200 50 L240 25 L300 55 L340 20 L400 60 L400 0 L0 0Z" fill="rgba(255,255,255,0.06)"/>
  <!-- Brand text -->
  <text x="200" y="368" text-anchor="middle" font-family="Arial, sans-serif" font-size="40" font-weight="bold" fill="white">Bisleri</text>
  <text x="200" y="393" text-anchor="middle" font-family="Arial, sans-serif" font-size="13" fill="rgba(255,255,255,0.6)">Pure &amp; Refreshing</text>
</svg>