<svg xmlns="http://www.w3.org/2000/svg" viewBox="0 0 400 400">
  <defs>
    <linearGradient id="bg" x1="0%" y1="0%" x2="100%" y2="100%">
      <stop offset="0%" style="stop-color:#00a651"/>
      <stop offset="100%" style="stop-color:#005e2f"/>
    </linearGradient>
    <radialGradient id="glow" cx="50%" cy="40%" r="50%">
      <stop offset="0%" style="stop-color:rgba(255,255,255,0.15)"/>
      <stop offset="100%" style="stop-color:rgba(255,255,255,0)"/>
    </radialGradient>
  </defs>
  <rect width="400" height="400" fill="url(#bg)" rx="20"/>
  <rect width="400" height="400" fill="url(#glow)"/>
  <!-- Bottle shape -->
  <path d="M175 320 L175 240 Q162 225 162 205 L162 145 Q162 125 172 115 L172 85 Q172 75 182 75 L218 75 Q228 75 228 85 L228 115 Q238 125 238 145 L238 205 Q238 225 225 240 L225 320 Q225 330 215 330 L185 330 Q175 330 175 320Z" fill="rgba(255,255,255,0.12)" stroke="rgba(255,255,255,0.3)" stroke-width="1.5"/>
  <!-- Cap -->
  <rect x="180" y="66" width="40" height="13" rx="3" fill="rgba(255,255,255,0.25)"/>
  <!-- Fizz bubbles -->
  <circle cx="190" cy="160" r="5" fill="rgba(255,255,255,0.15)"/>
  <circle cx="210" cy="140" r="3.5" fill="rgba(255,255,255,0.12)"/>
  <circle cx="195" cy="200" r="4" fill="rgba(255,255,255,0.1)"/>
  <circle cx="215" cy="180" r="3" fill="rgba(255,255,255,0.13)"/>
  <circle cx="205" cy="220" r="2.5" fill="rgba(255,255,255,0.09)"/>
  <circle cx="185" cy="250" r="4.5" fill="rgba(255,255,255,0.11)"/>
  <circle cx="220" cy="260" r="3" fill="rgba(255,255,255,0.08)"/>
  <!-- Lemon slice decoration -->
  <circle cx="310" cy="100" r="35" fill="rgba(255,255,0,0.15)" stroke="rgba(255,255,0,0.3)" stroke-width="1.5"/>
  <line x1="310" y1="65" x2="310" y2="135" stroke="rgba(255,255,0,0.2)" stroke-width="1"/>
  <line x1="275" y1="100" x2="345" y2="100" stroke="rgba(255,255,0,0.2)" stroke-width="1"/>
  <line x1="285" y1="75" x2="335" y2="125" stroke="rgba(255,255,0,0.2)" stroke-width="1"/>
  <line x1="335" y1="75" x2="285" y2="125" stroke="rgba(255,255,0,0.2)" stroke-width="1"/>
  <!-- Brand text -->
  <text x="200" y="370" text-anchor="middle" font-family="Arial Black, sans-serif" font-size="44" font-weight="900" fill="white">SPRITE</text>
  <text x="200" y="393" text-anchor="middle" font-family="Arial, sans-serif" font-size="12" fill="rgba(255,255,255,0.6)">Clear Hai!</text>
</svg>